<?xml version="1.0" encoding="UTF-8" standalone="no"?>
<svg width="32px" height="32px" viewBox="0 0 32 32" version="1.1" xmlns="http://www.w3.org/2000/svg" xmlns:xlink="http://www.w3.org/1999/xlink">
    <!-- Generator: Sketch 44.1 (41455) - http://www.bohemiancoding.com/sketch -->
    <title>Checkmark 2</title>
    <desc>Created with Sketch.</desc>
    <defs></defs>
    <g id="Page-2-Copy" stroke="none" stroke-width="1" fill="none" fill-rule="evenodd">
        <g id="25" stroke="#979797">
            <path d="M14.9497475,17.6776695 L15.127898,17.499519 L28.3465684,4.28084856 C28.7393486,3.88806836 29.3730182,3.88756381 29.7635425,4.2780881 C30.1567894,4.67133505 30.1540106,5.30183354 29.763417,5.69242711 L15.6569797,19.7988644 C15.2597834,20.1960608 14.633165,20.1895142 14.2426407,19.7989899 C14.2398676,19.7962168 14.2371141,19.793432 14.2343803,19.7906357 C14.2316001,19.7879179 14.2288317,19.7851808 14.2260752,19.7824244 L10.7067542,16.2631034 C10.3160746,15.8724238 10.3165825,15.2397667 10.7071068,14.8492424 C11.1003537,14.4559954 11.7306382,14.4585602 12.1209677,14.8488898 L14.9497475,17.6776695 L14.9497475,17.6776695 Z" id="Rectangle-348" stroke="none" fill="#2A2630" fill-rule="evenodd"></path>
            <path d="M13.4970486,0.19698655 C4.76928523,1.57932846 -1.18535536,9.77518811 0.19698655,18.5029514 C1.57932846,27.2307148 9.77518811,33.1853554 18.5029514,31.8030134 C25.6680468,30.6681738 31.1201042,24.8745779 31.9058825,17.767398 C32.061813,16.3570429 32.0290405,14.9241273 31.8030134,13.4970486 C31.7166171,12.9515634 31.2043759,12.5793983 30.6588906,12.6657947 C30.1134054,12.7521911 29.7412404,13.2644323 29.8276368,13.8099175 C30.0256917,15.0603872 30.0543671,16.3141641 29.9179953,17.5476148 C29.2306385,23.7645959 24.4594545,28.8346658 18.1900825,29.8276368 C10.5532896,31.0371859 3.3819124,25.8268754 2.17236323,18.1900825 C0.96281406,10.5532896 6.17312458,3.3819124 13.8099175,2.17236323 C16.6211893,1.72710151 19.4375395,2.14171517 21.9561679,3.32856493 C22.4557622,3.56398804 23.0516115,3.34983501 23.2870346,2.85024077 C23.5224577,2.35064653 23.3083047,1.75479724 22.8087104,1.51937414 C19.9298892,0.162791212 16.7078244,-0.311550388 13.4970486,0.19698655 L13.4970486,0.19698655 Z" id="Oval-1" stroke="none" fill="#95909E" fill-rule="nonzero"></path>
        </g>
    </g>
</svg>